<?xml version="1.0" encoding="iso-8859-1"?>
<!-- Uploaded to: SVG Repo, www.svgrepo.com, Generator: SVG Repo Mixer Tools -->
<!DOCTYPE svg PUBLIC "-//W3C//DTD SVG 1.1//EN" "http://www.w3.org/Graphics/SVG/1.1/DTD/svg11.dtd">
<svg version="1.1" id="Capa_1" xmlns="http://www.w3.org/2000/svg" xmlns:xlink="http://www.w3.org/1999/xlink" 
	 viewBox="0 0 512 512" xml:space="preserve">
<g>
	<path style="fill:#B1C3D0;" d="M432,0H80c-8.836,0-16,7.164-16,16v88h384V16C448,7.164,440.836,0,432,0z M296,80h-80V32h80V80z"/>
	<path style="fill:#8EADBE;" d="M344,72c-7.447,0-13.651-5.107-15.435-12c-0.332,1.286-0.565,2.61-0.565,4c0,8.844,7.164,16,16,16
		c8.836,0,16-7.156,16-16c0-1.39-0.233-2.714-0.565-4C357.651,66.893,351.447,72,344,72z"/>
	<path style="fill:#8EADBE;" d="M168,72c-7.447,0-13.651-5.107-15.435-12c-0.332,1.286-0.565,2.61-0.565,4c0,8.844,7.164,16,16,16
		c8.836,0,16-7.156,16-16c0-1.39-0.233-2.714-0.565-4C181.651,66.893,175.447,72,168,72z"/>
	<rect x="216" y="40" style="fill:#3CB44A;" width="80" height="40"/>
	<rect x="216" y="32" style="fill:#0E9247;" width="80" height="8"/>
	<path style="fill:#566E7F;" d="M64,104v408h384V104H64z M400,448H112V208h288V448z M400,152c0,4.421-3.583,8-8,8H120
		c-4.417,0-8-3.579-8-8v-8c0-4.422,3.583-8,8-8s8,3.578,8,8h256c0-4.422,3.583-8,8-8s8,3.578,8,8V152z"/>
	<rect x="112" y="208" style="fill:#3F556B;" width="288" height="240"/>
	<path style="fill:#3F556B;" d="M432,120v360c0,8.837-7.163,16-16,16H80c-8.837,0-16,7.163-16,16l0,0h120h144h120V104l0,0
		C439.163,104,432,111.163,432,120z"/>
	<g>
		<path style="fill:#B1C3D0;" d="M384,144H128c0-4.421-3.583-8-8-8c-4.418,0-8,3.579-8,8v8c0,4.422,3.582,8,8,8h272
			c4.417,0,8-3.578,8-8v-8c0-4.421-3.583-8-8-8C387.582,136,384,139.579,384,144z"/>
	</g>
	<rect x="112" y="320" style="fill:#35495C;" width="288" height="16"/>
	<path style="fill:#E2E4E6;" d="M352,42.157V40c0-4.418-3.582-8-8-8s-8,3.582-8,8v2.157c-4.778,2.766-8,7.92-8,13.843
		c0,8.844,7.164,16,16,16c8.836,0,16-7.156,16-16C360,50.077,356.778,44.923,352,42.157z"/>
	<path style="fill:#E2E4E6;" d="M176,42.157V40c0-4.418-3.582-8-8-8s-8,3.582-8,8v2.157c-4.778,2.766-8,7.92-8,13.843
		c0,8.844,7.164,16,16,16c8.836,0,16-7.156,16-16C184,50.077,180.778,44.923,176,42.157z"/>
</g>
</svg>